HIERARCHY
ROOT Hips
{
	OFFSET 0.000000 0.000000 0.000000
	CHANNELS 6 Xposition Yposition Zposition Xrotation Yrotation Zrotation
	JOINT LeftUpLeg_virtual
	{
		OFFSET 0.000000 0.000000 0.000000
		CHANNELS 3 Xrotation Yrotation Zrotation
		JOINT LeftUpLeg
		{
			OFFSET 13.026900 -6.336304 -1.092800
			CHANNELS 3 Xrotation Yrotation Zrotation
			JOINT LeftLeg
			{
				OFFSET 0.524474 -46.096886 9.782700
				CHANNELS 3 Xrotation Yrotation Zrotation
				JOINT LeftFoot
				{
					OFFSET -0.524474 -53.427422 -12.948200
					CHANNELS 3 Xrotation Yrotation Zrotation
					JOINT LeftToeBase
					{
						OFFSET 0.192200 -14.009700 16.364100
						CHANNELS 3 Xrotation Yrotation Zrotation
						JOINT LeftToe_End
						{
							OFFSET -1.784700 -0.561700 9.474800
							CHANNELS 3 Xrotation Yrotation Zrotation
							End Site
							{
								OFFSET 0 0 0
							}
						}
					}
				}
			}
		}
	}
	JOINT RightUpLeg_virtual
	{
		OFFSET 0.000000 0.000000 0.000000
		CHANNELS 3 Xrotation Yrotation Zrotation
		JOINT RightUpLeg
		{
			OFFSET -12.883000 -6.336304 -1.092800
			CHANNELS 3 Xrotation Yrotation Zrotation
			JOINT RightLeg
			{
				OFFSET -0.524587 -46.096825 9.782800
				CHANNELS 3 Xrotation Yrotation Zrotation
				JOINT RightFoot
				{
					OFFSET 0.524587 -53.427383 -12.948300
					CHANNELS 3 Xrotation Yrotation Zrotation
					JOINT RightToeBase
					{
						OFFSET -0.192200 -14.009700 16.364100
						CHANNELS 3 Xrotation Yrotation Zrotation
						JOINT RightToe_End
						{
							OFFSET 1.784700 -0.561700 9.474800
							CHANNELS 3 Xrotation Yrotation Zrotation
							End Site
							{
								OFFSET 0 0 0
							}
						}
					}
				}
			}
		}
	}
	JOINT Spine_virtual
	{
		OFFSET 0.000000 0.000000 0.000000
		CHANNELS 3 Xrotation Yrotation Zrotation
		JOINT Spine
		{
			OFFSET 0.072000 7.257294 -0.789700
			CHANNELS 3 Xrotation Yrotation Zrotation
			JOINT Spine1
			{
				OFFSET 0.000000 12.508769 -0.658067
				CHANNELS 3 Xrotation Yrotation Zrotation
				JOINT Spine1_split
				{
					OFFSET 0.000000 12.508769 -0.658067
					CHANNELS 3 Xrotation Yrotation Zrotation
					JOINT Spine2
					{
						OFFSET 0.000000 12.508769 -0.658067
						CHANNELS 3 Xrotation Yrotation Zrotation
						JOINT Neck_virtual
						{
							OFFSET 0.000000 0.000000 0.000000
							CHANNELS 3 Xrotation Yrotation Zrotation
							JOINT Neck
							{
								OFFSET 0.000000 14.033295 7.520400
								CHANNELS 3 Xrotation Yrotation Zrotation
								JOINT Head
								{
									OFFSET 0.000000 8.198502 5.703100
									CHANNELS 3 Xrotation Yrotation Zrotation
									JOINT HeadTop_End
									{
										OFFSET 0.000000 17.760803 13.332701
										CHANNELS 3 Xrotation Yrotation Zrotation
										End Site
										{
											OFFSET 0 0 0
										}
									}
								}
							}
						}
						JOINT LeftShoulder_virtual
						{
							OFFSET 0.000000 0.000000 0.000000
							CHANNELS 3 Xrotation Yrotation Zrotation
							JOINT LeftShoulder
							{
								OFFSET 6.292450 5.785301 -0.669000
								CHANNELS 3 Xrotation Yrotation Zrotation
								JOINT LeftShoulder_split
								{
									OFFSET 6.292450 5.785301 -0.669000
									CHANNELS 3 Xrotation Yrotation Zrotation
									JOINT LeftArm
									{
										OFFSET 13.907140 -6.093903 1.965100
										CHANNELS 3 Xrotation Yrotation Zrotation
										JOINT LeftForeArm
										{
											OFFSET 34.140198 0.000000 0.000000
											CHANNELS 3 Xrotation Yrotation Zrotation
											JOINT LeftHand
											{
												OFFSET 40.960209 0.000000 0.000000
												CHANNELS 3 Xrotation Yrotation Zrotation
												End Site
												{
													OFFSET 0 0 0
												}
											}
										}
									}
								}
							}
						}
						JOINT RightShoulder_virtual
						{
							OFFSET 0.000000 0.000000 0.000000
							CHANNELS 3 Xrotation Yrotation Zrotation
							JOINT RightShoulder
							{
								OFFSET -6.292450 5.785301 -0.669000
								CHANNELS 3 Xrotation Yrotation Zrotation
								JOINT RightShoulder_split
								{
									OFFSET -6.292450 5.785301 -0.669000
									CHANNELS 3 Xrotation Yrotation Zrotation
									JOINT RightArm
									{
										OFFSET -13.907140 -6.093903 1.965100
										CHANNELS 3 Xrotation Yrotation Zrotation
										JOINT RightForeArm
										{
											OFFSET -34.140198 0.000000 0.000000
											CHANNELS 3 Xrotation Yrotation Zrotation
											JOINT RightHand
											{
												OFFSET -40.960209 0.000000 0.000000
												CHANNELS 3 Xrotation Yrotation Zrotation
												End Site
												{
													OFFSET 0 0 0
												}
											}
										}
									}
								}
							}
						}
					}
				}
			}
		}
	}
}
MOTION
Frames: 4
Frame Time: 0.03333333
-9.242595 105.128540 48.347847 0.000000 0.000000 0.000000 28.070792 7.096500 -18.906974 -76.110048 -4.986789 14.632249 26.017813 9.028808 -5.375960 25.510026 -4.029456 6.947186 -2.159827 0.455745 0.028268 0.000000 0.000000 0.000000 28.546991 10.790527 -20.631490 8.846288 -24.905395 -13.643760 63.114793 6.747338 -0.748441 21.751984 -1.470204 13.734825 10.414020 0.273614 1.619048 0.000000 0.000000 0.000000 27.948605 8.092315 -20.720255 6.152813 13.140936 -7.939321 12.088488 11.739540 -7.268686 1.734000 1.957598 0.275216 0.000000 0.000000 0.000000 12.005844 11.024345 -7.584790 -11.089879 -6.658135 7.086380 -26.525671 -32.727944 19.305485 0.000000 0.000000 0.000000 11.577109 11.789596 -7.594711 0.012544 5.730881 5.488136 -3.894413 -0.494722 -0.971017 32.033259 -41.438290 -15.431370 0.555581 -29.345460 -0.709654 0.000000 0.000000 0.000000 11.656344 11.075735 -8.102741 5.150036 14.266269 -6.659274 0.165490 4.286729 -0.610317 -18.012390 58.642884 33.396838 -2.065791 41.082239 0.054108 0.000000 0.000000 0.000000 
-9.766525 104.683479 50.357918 0.000000 0.000000 0.000000 26.222672 8.012580 -18.182925 -76.349535 -4.969493 14.920914 30.711375 8.166855 -6.689961 22.659393 -4.361254 7.046643 -1.923942 0.419405 -0.070180 0.000000 0.000000 0.000000 26.566753 11.148153 -19.708427 4.176865 -24.591551 -13.276389 61.283667 6.619045 -1.044863 21.002253 -1.643877 10.871445 10.222234 0.266655 1.689434 0.000000 0.000000 0.000000 25.835343 8.273857 -19.909230 6.060430 11.718899 -8.263246 12.537066 10.843741 -7.390259 1.399227 2.104377 0.260011 0.000000 0.000000 0.000000 12.255662 10.246115 -7.718956 -11.411240 -6.423798 6.543539 -26.732391 -32.423810 19.756734 0.000000 0.000000 0.000000 11.608420 11.074075 -7.712037 0.146407 5.153987 6.392011 -3.887412 -1.404431 -1.706338 30.162348 -43.787612 -7.944669 0.831083 -27.650487 -0.427594 0.000000 0.000000 0.000000 11.893574 10.368326 -8.140517 4.921656 13.632079 -5.760108 0.745926 3.289424 -0.422607 -17.448495 54.690076 27.295861 -2.002697 39.855236 0.265282 0.000000 0.000000 0.000000 
-10.171016 104.705269 52.444489 0.000000 0.000000 0.000000 24.569649 8.693163 -17.542419 -76.054259 -4.631356 15.159222 34.841567 7.277479 -7.552384 19.875174 -4.550900 7.141556 -1.560230 0.421575 -0.246814 0.000000 0.000000 0.000000 24.596088 11.626525 -19.018544 -0.297922 -24.486590 -12.958370 58.705332 6.504792 -1.295603 20.278381 -1.456190 7.445859 9.594775 0.324896 1.935086 0.000000 0.000000 0.000000 23.696506 8.421967 -19.255939 6.012078 10.288718 -8.586649 12.984742 9.661233 -7.494400 1.278118 2.026264 0.197370 0.000000 0.000000 0.000000 12.581792 9.186766 -7.857358 -11.698807 -6.273072 6.009067 -26.487875 -31.839398 20.358176 0.000000 0.000000 0.000000 11.766106 10.031763 -7.809843 0.285045 4.498552 7.069854 -3.732535 -2.129068 -2.311985 26.675971 -46.881391 -2.028269 1.040797 -25.230883 -0.071732 0.000000 0.000000 0.000000 12.282074 9.374951 -8.188377 4.883838 13.182455 -5.871452 1.079616 2.286026 -0.419556 -17.397103 51.420724 22.465930 -1.872792 37.630152 0.419528 0.000000 0.000000 0.000000 
-10.433024 105.085770 54.561909 0.000000 0.000000 0.000000 22.954698 9.192359 -17.015366 -75.038384 -3.957161 15.461291 38.517114 6.394000 -7.897948 17.250626 -4.517048 7.145075 -1.633282 0.449419 -0.456946 0.000000 0.000000 0.000000 22.598080 12.131049 -18.537852 -4.825527 -24.599524 -13.019421 55.757853 6.681723 -1.687409 20.299665 -0.569109 4.765258 7.096911 0.362509 2.347383 0.000000 0.000000 0.000000 21.571887 8.641180 -18.757226 6.033933 8.701337 -8.940123 13.443681 8.103201 -7.509190 1.308212 1.948407 0.101075 0.000000 0.000000 0.000000 12.959606 7.732472 -7.894001 -11.847784 -6.150950 5.561082 -25.687853 -30.742559 21.163614 0.000000 0.000000 0.000000 12.083837 8.562511 -7.830728 0.405430 3.775446 7.486335 -3.620042 -2.386193 -2.635649 21.172989 -50.310101 1.629929 1.080228 -22.128997 0.282467 0.000000 0.000000 0.000000 12.776760 7.966350 -8.160770 5.000450 12.847956 -6.991360 1.194863 1.562963 -0.627313 -17.156324 48.850486 18.117458 -1.681766 35.369896 0.469458 0.000000 0.000000 0.000000 
